<svg width="29" height="30" viewBox="0 0 29 30" fill="none" xmlns="http://www.w3.org/2000/svg">
<path d="M14.5 18.4512C16.6355 18.4512 18.3666 16.72 18.3666 14.5845C18.3666 12.449 16.6355 10.7178 14.5 10.7178C12.3645 10.7178 10.6333 12.449 10.6333 14.5845C10.6333 16.72 12.3645 18.4512 14.5 18.4512Z" fill="#C66747"/>
<path d="M10.8748 2.50122L8.66359 4.91789H4.83317C3.504 4.91789 2.4165 6.00539 2.4165 7.33455V21.8346C2.4165 23.1637 3.504 24.2512 4.83317 24.2512H24.1665C25.4957 24.2512 26.5832 23.1637 26.5832 21.8346V7.33455C26.5832 6.00539 25.4957 4.91789 24.1665 4.91789H20.3361L18.1248 2.50122H10.8748ZM14.4998 20.6262C11.1648 20.6262 8.45817 17.9196 8.45817 14.5846C8.45817 11.2496 11.1648 8.54289 14.4998 8.54289C17.8348 8.54289 20.5415 11.2496 20.5415 14.5846C20.5415 17.9196 17.8348 20.6262 14.4998 20.6262Z" fill="#C66747"/>
</svg>
