<svg width="24" height="25" viewBox="0 0 24 25" fill="none" xmlns="http://www.w3.org/2000/svg">
<path d="M13.4099 12.0845L17.7099 7.79454C17.8982 7.60623 18.004 7.35084 18.004 7.08454C18.004 6.81823 17.8982 6.56284 17.7099 6.37454C17.5216 6.18623 17.2662 6.08044 16.9999 6.08044C16.7336 6.08044 16.4782 6.18623 16.2899 6.37454L11.9999 10.6745L7.70994 6.37454C7.52164 6.18623 7.26624 6.08044 6.99994 6.08044C6.73364 6.08044 6.47824 6.18623 6.28994 6.37454C6.10164 6.56284 5.99585 6.81823 5.99585 7.08454C5.99585 7.35084 6.10164 7.60623 6.28994 7.79454L10.5899 12.0845L6.28994 16.3745C6.19621 16.4675 6.12182 16.5781 6.07105 16.7C6.02028 16.8218 5.99414 16.9525 5.99414 17.0845C5.99414 17.2165 6.02028 17.3473 6.07105 17.4691C6.12182 17.591 6.19621 17.7016 6.28994 17.7945C6.3829 17.8883 6.4935 17.9627 6.61536 18.0134C6.73722 18.0642 6.86793 18.0903 6.99994 18.0903C7.13195 18.0903 7.26266 18.0642 7.38452 18.0134C7.50638 17.9627 7.61698 17.8883 7.70994 17.7945L11.9999 13.4945L16.2899 17.7945C16.3829 17.8883 16.4935 17.9627 16.6154 18.0134C16.7372 18.0642 16.8679 18.0903 16.9999 18.0903C17.132 18.0903 17.2627 18.0642 17.3845 18.0134C17.5064 17.9627 17.617 17.8883 17.7099 17.7945C17.8037 17.7016 17.8781 17.591 17.9288 17.4691C17.9796 17.3473 18.0057 17.2165 18.0057 17.0845C18.0057 16.9525 17.9796 16.8218 17.9288 16.7C17.8781 16.5781 17.8037 16.4675 17.7099 16.3745L13.4099 12.0845Z" fill="black"/>
</svg>
