<svg width="24" height="25" viewBox="0 0 24 25" fill="none" xmlns="http://www.w3.org/2000/svg">
<path d="M20.7633 11.5759C20.8477 11.2947 20.8898 11.0041 20.8898 10.7088C20.8898 10.0455 20.6719 9.40797 20.2781 8.88766C20.3625 8.60641 20.4047 8.31578 20.4047 8.02047C20.4047 7.35719 20.1867 6.71969 19.793 6.19938C19.8773 5.91813 19.9195 5.6275 19.9195 5.33219C19.9195 4.12281 19.2 3.03297 18.0844 2.55719C17.8883 2.47265 17.6768 2.42956 17.4633 2.43063H6.39844V12.4619H6.40547L8.41641 19.7463C8.73984 20.9205 9.81797 21.7408 11.0367 21.7408C11.7328 21.7408 12.382 21.4642 12.8625 20.958C13.343 20.4541 13.5891 19.7931 13.5539 19.097L13.4133 16.2166H19.0359C19.3195 16.2166 19.5961 16.1416 19.8398 15.9986C20.7867 15.4478 21.375 14.4494 21.375 13.397C21.375 12.7338 21.157 12.0963 20.7633 11.5759ZM2.625 3.17828V11.7095C2.625 12.1244 2.96016 12.4595 3.375 12.4595H4.89844V2.42828H3.375C2.96016 2.42828 2.625 2.76344 2.625 3.17828Z" fill="black"/>
</svg>
