<svg width="18" height="25" viewBox="0 0 18 25" fill="none" xmlns="http://www.w3.org/2000/svg">
<path d="M9 24.0845C9 24.0845 18 15.5555 18 9.08453C18 6.69759 17.0518 4.4084 15.364 2.72057C13.6761 1.03275 11.3869 0.0845337 9 0.0845337C6.61305 0.0845337 4.32387 1.03275 2.63604 2.72057C0.948211 4.4084 3.55683e-08 6.69759 0 9.08453C0 15.5555 9 24.0845 9 24.0845ZM9 13.5845C7.80653 13.5845 6.66193 13.1104 5.81802 12.2665C4.97411 11.4226 4.5 10.278 4.5 9.08453C4.5 7.89106 4.97411 6.74647 5.81802 5.90255C6.66193 5.05864 7.80653 4.58453 9 4.58453C10.1935 4.58453 11.3381 5.05864 12.182 5.90255C13.0259 6.74647 13.5 7.89106 13.5 9.08453C13.5 10.278 13.0259 11.4226 12.182 12.2665C11.3381 13.1104 10.1935 13.5845 9 13.5845Z" fill="black"/>
</svg>
