<svg width="24" height="25" viewBox="0 0 24 25" fill="none" xmlns="http://www.w3.org/2000/svg">
<path d="M19.5863 21.0846C19.4874 21.0848 19.3895 21.0653 19.2981 21.0273C19.2068 20.9893 19.1239 20.9336 19.0543 20.8633L1.90556 3.6124C1.76532 3.47129 1.68689 3.28026 1.6875 3.08133C1.68812 2.88239 1.76774 2.69185 1.90884 2.55162C2.04994 2.41138 2.24097 2.33295 2.43991 2.33356C2.63884 2.33418 2.82939 2.41379 2.96962 2.5549L20.1179 19.8049C20.2226 19.9099 20.2939 20.0436 20.3227 20.1891C20.3515 20.3346 20.3364 20.4853 20.2796 20.6223C20.2227 20.7593 20.1264 20.8763 20.003 20.9586C19.8797 21.0408 19.7346 21.0847 19.5863 21.0846Z" fill="black"/>
<path d="M17.1058 3.83453C14.8516 3.83453 13.3558 5.21969 12.5627 6.22516C11.7714 5.21828 10.2737 3.83453 8.01953 3.83453C7.52733 3.83419 7.03775 3.90605 6.56641 4.04782L7.87516 5.33453C8.91859 5.33453 10.0225 5.75641 10.8723 6.58469C11.2755 6.97739 11.619 7.427 11.8919 7.91922C11.9543 8.04354 12.05 8.14805 12.1684 8.22108C12.2867 8.29412 12.4231 8.3328 12.5622 8.3328C12.7013 8.3328 12.8376 8.29412 12.956 8.22108C13.0744 8.14805 13.1701 8.04354 13.2325 7.91922C13.5055 7.42628 13.8493 6.97602 14.253 6.58282C15.1028 5.75641 16.0623 5.33453 17.1058 5.33453C19.1284 5.33453 20.7911 7.0375 20.8122 9.13141C20.8375 11.6481 19.7458 13.7978 18.1225 15.6714L19.1833 16.7388C19.3239 16.5775 19.4505 16.4275 19.5648 16.2888C21.4398 14.0036 22.3375 11.6575 22.3122 9.11688C22.2831 6.20266 19.9473 3.83453 17.1058 3.83453Z" fill="black"/>
<path d="M12.5625 20.3346C8.45534 17.546 4.26566 14.0346 4.31253 9.1315C4.31552 8.84115 4.35074 8.55204 4.41753 8.26947L3.23441 7.07556C2.96277 7.72126 2.81948 8.41368 2.81253 9.11416C2.78722 11.6557 3.68581 14.0018 5.55988 16.286C6.43972 17.3581 8.03488 19.0727 11.7188 21.5735C11.9672 21.7438 12.2614 21.8349 12.5625 21.8349C12.8637 21.8349 13.1578 21.7438 13.4063 21.5735C14.3602 20.9262 15.1735 20.3313 15.871 19.7871L14.8088 18.7179C14.0743 19.2846 13.3168 19.8213 12.5625 20.3346Z" fill="black"/>
</svg>
