<svg width="24" height="25" viewBox="0 0 24 25" fill="none" xmlns="http://www.w3.org/2000/svg">
<path d="M20.7633 12.5931C21.157 12.0728 21.375 11.4353 21.375 10.772C21.375 9.71967 20.7867 8.72358 19.8398 8.16811C19.5961 8.02513 19.3185 7.94988 19.0359 7.95014H13.4156L13.5563 5.06967C13.5891 4.37358 13.343 3.71264 12.8648 3.20873C12.6302 2.96036 12.3471 2.76275 12.0331 2.6281C11.7191 2.49346 11.3807 2.42465 11.0391 2.42592C9.82031 2.42592 8.74219 3.24623 8.41875 4.42045L6.40547 11.7095H6.39844V21.7408H17.468C17.6836 21.7408 17.8945 21.6986 18.0891 21.6142C19.2047 21.1384 19.9242 20.0486 19.9242 18.8392C19.9242 18.5439 19.882 18.2533 19.7977 17.972C20.1914 17.4517 20.4094 16.8142 20.4094 16.1509C20.4094 15.8556 20.3672 15.565 20.2828 15.2837C20.6766 14.7634 20.8945 14.1259 20.8945 13.4626C20.8898 13.1673 20.8477 12.8744 20.7633 12.5931ZM2.625 12.4595V20.9908C2.625 21.4056 2.96016 21.7408 3.375 21.7408H4.89844V11.7095H3.375C2.96016 11.7095 2.625 12.0447 2.625 12.4595Z" fill="black"/>
</svg>
