<svg width="42" height="43" viewBox="0 0 42 43" fill="none" xmlns="http://www.w3.org/2000/svg">
<path fill-rule="evenodd" clip-rule="evenodd" d="M13.1579 40.9866C2.46784 36.4667 -2.50123 24.2135 2.05916 13.6183C6.61956 3.02316 18.9825 -1.90183 29.6725 2.61811C43.5456 9.03098 33.616 22.6524 24.3851 17.6469C17.7446 14.0461 11.2155 17.3846 8.99824 21.8162C6.781 26.2477 7.47039 32.2138 13.9328 36.3955C20.3952 40.5772 31.2879 40.4176 37.2876 34.6263C37.4136 34.5013 37.6234 34.5165 37.727 34.6602C37.8012 34.7631 37.7974 34.9028 37.7167 35.0008C31.9416 42.0143 21.9801 44.7168 13.1579 40.9866Z" fill="#483B50"/>
<path d="M32.2035 23.527C38.7391 21.3784 40.1158 16.1439 39.6581 13.3516C39.6267 13.1033 39.9873 13.018 40.1163 13.353C40.7114 14.8985 41.4293 21.2204 34.2496 25.1898C27.0699 29.1592 18.5523 26.5853 16.0645 24.7185C15.1744 24.0506 14.8098 22.8853 15.4602 22.0558C16.1107 21.2262 17.2842 20.9278 18.2271 21.5653C21.0688 23.4865 25.6679 25.6755 32.2035 23.527Z" fill="#483B50"/>
<path d="M31.3191 31.3448C34.9145 30.1625 38.1167 27.8375 40.3256 23.9216C40.5357 23.549 41.0604 23.7492 40.9173 24.1375C39.4908 28.0087 36.9138 31.4014 32.4165 33.5106C27.9192 35.6198 22.7312 35.9487 16.5896 33.2725C15.5782 32.8318 15.039 31.6837 15.5407 30.7733C16.0425 29.8628 17.2682 29.4662 18.369 30.0444C22.7495 32.3451 27.7236 32.5271 31.3191 31.3448Z" fill="#483B50"/>
</svg>
