<svg width="134" height="22" viewBox="0 0 134 22" fill="none" xmlns="http://www.w3.org/2000/svg">
<path d="M11.6693 9.48239C12.5144 9.75 13.1764 10.2007 13.6552 10.8345C14.1341 11.4542 14.3735 12.2218 14.3735 13.1373C14.3735 14.4331 13.8665 15.4331 12.8524 16.1373C11.8524 16.8275 10.3876 17.1725 8.45805 17.1725H0.810162V2.3838H8.03551C9.83833 2.3838 11.2186 2.72887 12.1764 3.41901C13.1482 4.10915 13.6341 5.04577 13.6341 6.22887C13.6341 6.94718 13.458 7.58802 13.1059 8.1514C12.7679 8.71478 12.289 9.15845 11.6693 9.48239ZM4.21157 4.96126V8.44718H7.61298C8.45805 8.44718 9.09889 8.29929 9.53551 8.00352C9.97213 7.70774 10.1904 7.27112 10.1904 6.69366C10.1904 6.11619 9.97213 5.68662 9.53551 5.40492C9.09889 5.10915 8.45805 4.96126 7.61298 4.96126H4.21157ZM8.20453 14.5951C9.10594 14.5951 9.78199 14.4472 10.2327 14.1514C10.6975 13.8556 10.9299 13.3979 10.9299 12.7782C10.9299 11.5528 10.0214 10.9401 8.20453 10.9401H4.21157V14.5951H8.20453ZM16.9298 5.80633H20.2256V17.1725H16.9298V5.80633ZM18.5777 4.22183C17.9721 4.22183 17.4791 4.04577 17.0989 3.69366C16.7186 3.34154 16.5284 2.90492 16.5284 2.3838C16.5284 1.86267 16.7186 1.42605 17.0989 1.07394C17.4791 0.721826 17.9721 0.545769 18.5777 0.545769C19.1834 0.545769 19.6763 0.714784 20.0566 1.05281C20.4369 1.39084 20.627 1.81338 20.627 2.32042C20.627 2.86971 20.4369 3.32746 20.0566 3.69366C19.6763 4.04577 19.1834 4.22183 18.5777 4.22183ZM30.2002 5.63732C31.2566 5.63732 32.2143 5.8838 33.0735 6.37676C33.9467 6.85563 34.6298 7.53873 35.1228 8.42605C35.6157 9.29929 35.8622 10.3204 35.8622 11.4894C35.8622 12.6584 35.6157 13.6866 35.1228 14.5739C34.6298 15.4472 33.9467 16.1303 33.0735 16.6232C32.2143 17.1021 31.2566 17.3415 30.2002 17.3415C28.6368 17.3415 27.4467 16.8486 26.6298 15.8627V17.1725H23.4819V1.49647H26.7777V7.01056C27.6087 6.09507 28.7495 5.63732 30.2002 5.63732ZM29.6298 14.6373C30.4749 14.6373 31.165 14.3556 31.7002 13.7922C32.2495 13.2148 32.5242 12.4472 32.5242 11.4894C32.5242 10.5317 32.2495 9.77112 31.7002 9.20774C31.165 8.63028 30.4749 8.34154 29.6298 8.34154C28.7847 8.34154 28.0875 8.63028 27.5383 9.20774C27.003 9.77112 26.7354 10.5317 26.7354 11.4894C26.7354 12.4472 27.003 13.2148 27.5383 13.7922C28.0875 14.3556 28.7847 14.6373 29.6298 14.6373ZM38.266 1.49647H41.5618V17.1725H38.266V1.49647ZM50.2265 17.3415C49.0293 17.3415 47.9519 17.0951 46.9941 16.6021C46.0505 16.0951 45.311 15.3979 44.7758 14.5106C44.2406 13.6232 43.973 12.6162 43.973 11.4894C43.973 10.3627 44.2406 9.35563 44.7758 8.46831C45.311 7.58098 46.0505 6.89084 46.9941 6.39788C47.9519 5.89084 49.0293 5.63732 50.2265 5.63732C51.4237 5.63732 52.4941 5.89084 53.4378 6.39788C54.3814 6.89084 55.1209 7.58098 55.6561 8.46831C56.1913 9.35563 56.4589 10.3627 56.4589 11.4894C56.4589 12.6162 56.1913 13.6232 55.6561 14.5106C55.1209 15.3979 54.3814 16.0951 53.4378 16.6021C52.4941 17.0951 51.4237 17.3415 50.2265 17.3415ZM50.2265 14.6373C51.0716 14.6373 51.7617 14.3556 52.2969 13.7922C52.8462 13.2148 53.1209 12.4472 53.1209 11.4894C53.1209 10.5317 52.8462 9.77112 52.2969 9.20774C51.7617 8.63028 51.0716 8.34154 50.2265 8.34154C49.3814 8.34154 48.6843 8.63028 48.135 9.20774C47.5857 9.77112 47.311 10.5317 47.311 11.4894C47.311 12.4472 47.5857 13.2148 48.135 13.7922C48.6843 14.3556 49.3814 14.6373 50.2265 14.6373ZM62.6833 17.3415C61.7397 17.3415 60.8171 17.2289 59.9157 17.0035C59.0143 16.7641 58.296 16.4683 57.7608 16.1162L58.8594 13.75C59.3664 14.0739 59.9791 14.3415 60.6974 14.5528C61.4157 14.75 62.12 14.8486 62.8101 14.8486C64.2045 14.8486 64.9017 14.5035 64.9017 13.8134C64.9017 13.4894 64.7115 13.257 64.3312 13.1162C63.951 12.9753 63.3664 12.8556 62.5777 12.757C61.6481 12.6162 60.8805 12.4542 60.2749 12.2711C59.6693 12.088 59.1411 11.7641 58.6904 11.2993C58.2538 10.8345 58.0355 10.1725 58.0355 9.31338C58.0355 8.59507 58.2397 7.96126 58.6481 7.41197C59.0707 6.84859 59.6763 6.41197 60.465 6.10211C61.2679 5.79225 62.2115 5.63732 63.296 5.63732C64.0988 5.63732 64.8946 5.72887 65.6833 5.91197C66.4862 6.08098 67.1481 6.32042 67.6693 6.63028L66.5707 8.97535C65.5707 8.41197 64.4791 8.13028 63.296 8.13028C62.5918 8.13028 62.0636 8.22887 61.7115 8.42605C61.3594 8.62324 61.1833 8.87676 61.1833 9.18662C61.1833 9.53873 61.3735 9.78521 61.7538 9.92605C62.1341 10.0669 62.7397 10.2007 63.5707 10.3275C64.5002 10.4824 65.2608 10.6514 65.8524 10.8345C66.4439 11.0035 66.958 11.3204 67.3946 11.7852C67.8312 12.25 68.0495 12.8979 68.0495 13.7289C68.0495 14.4331 67.8383 15.0599 67.4157 15.6092C66.9932 16.1584 66.3735 16.588 65.5566 16.8979C64.7538 17.1937 63.796 17.3415 62.6833 17.3415ZM76.9988 5.63732C78.0552 5.63732 79.0129 5.8838 79.8721 6.37676C80.7453 6.85563 81.4284 7.53873 81.9214 8.42605C82.4143 9.29929 82.6608 10.3204 82.6608 11.4894C82.6608 12.6584 82.4143 13.6866 81.9214 14.5739C81.4284 15.4472 80.7453 16.1303 79.8721 16.6232C79.0129 17.1021 78.0552 17.3415 76.9988 17.3415C75.5481 17.3415 74.4073 16.8838 73.5763 15.9683V21.2711H70.2805V5.80633H73.4284V7.11619C74.2453 6.13028 75.4355 5.63732 76.9988 5.63732ZM76.4284 14.6373C77.2735 14.6373 77.9636 14.3556 78.4988 13.7922C79.0481 13.2148 79.3228 12.4472 79.3228 11.4894C79.3228 10.5317 79.0481 9.77112 78.4988 9.20774C77.9636 8.63028 77.2735 8.34154 76.4284 8.34154C75.5834 8.34154 74.8862 8.63028 74.3369 9.20774C73.8017 9.77112 73.5341 10.5317 73.5341 11.4894C73.5341 12.4472 73.8017 13.2148 74.3369 13.7922C74.8862 14.3556 75.5834 14.6373 76.4284 14.6373ZM91.9731 5.63732C93.3815 5.63732 94.5153 6.05985 95.3745 6.90492C96.2477 7.75 96.6843 9.00352 96.6843 10.6655V17.1725H93.3886V11.1725C93.3886 10.2711 93.1914 9.60211 92.797 9.16549C92.4026 8.71478 91.8322 8.48943 91.0857 8.48943C90.2547 8.48943 89.5928 8.75 89.0998 9.27112C88.6069 9.77816 88.3604 10.5387 88.3604 11.5528V17.1725H85.0646V1.49647H88.3604V6.98943C88.797 6.55281 89.3252 6.22183 89.9449 5.99647C90.5646 5.75704 91.2407 5.63732 91.9731 5.63732ZM111.127 11.5317C111.127 11.5739 111.106 11.8697 111.064 12.419H102.465C102.62 13.1232 102.986 13.6796 103.564 14.088C104.141 14.4965 104.859 14.7007 105.718 14.7007C106.31 14.7007 106.831 14.6162 107.282 14.4472C107.747 14.2641 108.176 13.9824 108.571 13.6021L110.324 15.5035C109.254 16.7289 107.69 17.3415 105.634 17.3415C104.352 17.3415 103.218 17.0951 102.233 16.6021C101.247 16.0951 100.486 15.3979 99.9509 14.5106C99.4156 13.6232 99.148 12.6162 99.148 11.4894C99.148 10.3768 99.4086 9.37676 99.9297 8.48943C100.465 7.58802 101.19 6.89084 102.106 6.39788C103.035 5.89084 104.071 5.63732 105.211 5.63732C106.324 5.63732 107.331 5.87676 108.233 6.35563C109.134 6.8345 109.838 7.52464 110.345 8.42605C110.866 9.31338 111.127 10.3486 111.127 11.5317ZM105.233 8.13028C104.486 8.13028 103.859 8.34154 103.352 8.76408C102.845 9.18662 102.535 9.76408 102.423 10.4965H108.021C107.909 9.77816 107.599 9.20774 107.092 8.78521C106.585 8.34859 105.965 8.13028 105.233 8.13028ZM116.667 7.30633C117.061 6.75704 117.589 6.34154 118.251 6.05985C118.927 5.77816 119.702 5.63732 120.575 5.63732V8.67957C120.209 8.6514 119.962 8.63732 119.836 8.63732C118.892 8.63732 118.152 8.90493 117.617 9.44014C117.082 9.96126 116.814 10.75 116.814 11.8063V17.1725H113.519V5.80633H116.667V7.30633ZM133.763 11.5317C133.763 11.5739 133.742 11.8697 133.699 12.419H125.101C125.256 13.1232 125.622 13.6796 126.199 14.088C126.777 14.4965 127.495 14.7007 128.354 14.7007C128.946 14.7007 129.467 14.6162 129.918 14.4472C130.383 14.2641 130.812 13.9824 131.207 13.6021L132.96 15.5035C131.89 16.7289 130.326 17.3415 128.27 17.3415C126.988 17.3415 125.854 17.0951 124.868 16.6021C123.883 16.0951 123.122 15.3979 122.587 14.5106C122.052 13.6232 121.784 12.6162 121.784 11.4894C121.784 10.3768 122.045 9.37676 122.566 8.48943C123.101 7.58802 123.826 6.89084 124.742 6.39788C125.671 5.89084 126.707 5.63732 127.847 5.63732C128.96 5.63732 129.967 5.87676 130.868 6.35563C131.77 6.8345 132.474 7.52464 132.981 8.42605C133.502 9.31338 133.763 10.3486 133.763 11.5317ZM127.868 8.13028C127.122 8.13028 126.495 8.34154 125.988 8.76408C125.481 9.18662 125.171 9.76408 125.059 10.4965H130.657C130.545 9.77816 130.235 9.20774 129.728 8.78521C129.221 8.34859 128.601 8.13028 127.868 8.13028Z" fill="#383F54"/>
</svg>
