<svg width="20" height="20" viewBox="0 0 20 20" fill="none" xmlns="http://www.w3.org/2000/svg">
<g clip-path="url(#clip0_154:2161)">
<path d="M15.5236 7.78518C15.4086 7.60643 15.2111 7.50019 14.9999 7.50019H10.6249V0.625279C10.6249 0.330284 10.4187 0.075287 10.1299 0.0140379C9.83618 -0.0484613 9.54869 0.102787 9.42869 0.371533L4.42876 11.6214C4.34251 11.8139 4.36126 12.0389 4.47626 12.2151C4.59126 12.3926 4.78875 12.5001 5 12.5001H9.37494V19.375C9.37494 19.67 9.58119 19.925 9.86993 19.9863C9.91368 19.995 9.95743 20 9.99993 20C10.2424 20 10.4687 19.8588 10.5712 19.6288L15.5711 8.37892C15.6561 8.18518 15.6399 7.96268 15.5236 7.78518Z" fill="#0030C3"/>
</g>
<defs>
<clipPath id="clip0_154:2161">
<rect width="20" height="20" fill="white"/>
</clipPath>
</defs>
</svg>
