<svg width="20" height="21" viewBox="0 0 20 21" fill="none" xmlns="http://www.w3.org/2000/svg">
<g clip-path="url(#clip0)">
<path d="M6.875 6.95953C7.04076 6.95953 7.19973 7.02538 7.31694 7.14259C7.43415 7.2598 7.5 7.41877 7.5 7.58453V15.0845C7.5 15.2503 7.43415 15.4093 7.31694 15.5265C7.19973 15.6437 7.04076 15.7095 6.875 15.7095C6.70924 15.7095 6.55027 15.6437 6.43306 15.5265C6.31585 15.4093 6.25 15.2503 6.25 15.0845V7.58453C6.25 7.41877 6.31585 7.2598 6.43306 7.14259C6.55027 7.02538 6.70924 6.95953 6.875 6.95953ZM10 6.95953C10.1658 6.95953 10.3247 7.02538 10.4419 7.14259C10.5592 7.2598 10.625 7.41877 10.625 7.58453V15.0845C10.625 15.2503 10.5592 15.4093 10.4419 15.5265C10.3247 15.6437 10.1658 15.7095 10 15.7095C9.83424 15.7095 9.67527 15.6437 9.55806 15.5265C9.44085 15.4093 9.375 15.2503 9.375 15.0845V7.58453C9.375 7.41877 9.44085 7.2598 9.55806 7.14259C9.67527 7.02538 9.83424 6.95953 10 6.95953ZM13.75 7.58453C13.75 7.41877 13.6842 7.2598 13.5669 7.14259C13.4497 7.02538 13.2908 6.95953 13.125 6.95953C12.9592 6.95953 12.8003 7.02538 12.6831 7.14259C12.5658 7.2598 12.5 7.41877 12.5 7.58453V15.0845C12.5 15.2503 12.5658 15.4093 12.6831 15.5265C12.8003 15.6437 12.9592 15.7095 13.125 15.7095C13.2908 15.7095 13.4497 15.6437 13.5669 15.5265C13.6842 15.4093 13.75 15.2503 13.75 15.0845V7.58453Z" fill="black"/>
<path fill-rule="evenodd" clip-rule="evenodd" d="M18.125 3.83453C18.125 4.16605 17.9933 4.484 17.7589 4.71842C17.5245 4.95284 17.2065 5.08453 16.875 5.08453H16.25V16.3345C16.25 16.9976 15.9866 17.6335 15.5178 18.1023C15.0489 18.5711 14.413 18.8345 13.75 18.8345H6.25C5.58696 18.8345 4.95107 18.5711 4.48223 18.1023C4.01339 17.6335 3.75 16.9976 3.75 16.3345V5.08453H3.125C2.79348 5.08453 2.47554 4.95284 2.24112 4.71842C2.0067 4.484 1.875 4.16605 1.875 3.83453V2.58453C1.875 2.25301 2.0067 1.93507 2.24112 1.70065C2.47554 1.46623 2.79348 1.33453 3.125 1.33453H7.5C7.5 1.00301 7.6317 0.685071 7.86612 0.45065C8.10054 0.21623 8.41848 0.0845337 8.75 0.0845337L11.25 0.0845337C11.5815 0.0845337 11.8995 0.21623 12.1339 0.45065C12.3683 0.685071 12.5 1.00301 12.5 1.33453H16.875C17.2065 1.33453 17.5245 1.46623 17.7589 1.70065C17.9933 1.93507 18.125 2.25301 18.125 2.58453V3.83453ZM5.1475 5.08453L5 5.15828V16.3345C5 16.6661 5.1317 16.984 5.36612 17.2184C5.60054 17.4528 5.91848 17.5845 6.25 17.5845H13.75C14.0815 17.5845 14.3995 17.4528 14.6339 17.2184C14.8683 16.984 15 16.6661 15 16.3345V5.15828L14.8525 5.08453H5.1475ZM3.125 3.83453V2.58453H16.875V3.83453H3.125Z" fill="black"/>
</g>
<defs>
<clipPath id="clip0">
<rect width="20" height="20" fill="white" transform="translate(0 0.0845337)"/>
</clipPath>
</defs>
</svg>
